<svg width="40" height="32" viewBox="0 0 40 32" fill="none" xmlns="http://www.w3.org/2000/svg">
<path d="M0 30C0 31.1046 0.895431 32 2 32H38C39.1046 32 40 31.1046 40 30V28.6667C40 27.5621 39.1046 26.6667 38 26.6667H2C0.895431 26.6667 0 27.5621 0 28.6667V30ZM0 16.6667C0 17.7712 0.895431 18.6667 2 18.6667H38C39.1046 18.6667 40 17.7712 40 16.6667V15.3333C40 14.2288 39.1046 13.3333 38 13.3333H2C0.895431 13.3333 0 14.2288 0 15.3333V16.6667ZM2 0C0.895431 0 0 0.895431 0 2V3.33333C0 4.4379 0.895431 5.33333 2 5.33333H38C39.1046 5.33333 40 4.4379 40 3.33333V2C40 0.895432 39.1046 0 38 0H2Z" fill="#02022B"/>
</svg>
